<?xml version="1.0" encoding="UTF-8" standalone="no"?>
<svg
   xmlns:dc="http://purl.org/dc/elements/1.1/"
   xmlns:cc="http://creativecommons.org/ns#"
   xmlns:rdf="http://www.w3.org/1999/02/22-rdf-syntax-ns#"
   xmlns:svg="http://www.w3.org/2000/svg"
   xmlns="http://www.w3.org/2000/svg"
   xmlns:xlink="http://www.w3.org/1999/xlink"
   id="svg53"
   version="1.1"
   height="331"
   width="326">
  <metadata
     id="metadata57">
    <rdf:RDF>
      <cc:Work
         rdf:about="">
        <dc:format>image/svg+xml</dc:format>
        <dc:type
           rdf:resource="http://purl.org/dc/dcmitype/StillImage" />
        <dc:title></dc:title>
      </cc:Work>
    </rdf:RDF>
  </metadata>
  <defs
     id="defs20">
    <linearGradient
       gradientUnits="userSpaceOnUse"
       gradientTransform="scale(1.2256852,0.81587019)"
       id="c"
       y2="191.91064"
       x2="265.97369"
       y1="74.063034"
       x1="0">
      <stop
         id="stop2"
         offset="0%"
         stop-color="#FF8F71" />
      <stop
         id="stop4"
         offset="100%"
         stop-color="#FF3E55" />
    </linearGradient>
    <linearGradient
       gradientUnits="userSpaceOnUse"
       gradientTransform="scale(1.5198146,0.657975)"
       id="e"
       y2="169.94183"
       x2="199.38492"
       y1="147.77766"
       x1="67.093163">
      <stop
         id="stop7"
         offset="0%"
         stop-color="#FF8F71" />
      <stop
         id="stop9"
         offset="100%"
         stop-color="#FF3E55" />
    </linearGradient>
    <filter
       id="b"
       filterUnits="objectBoundingBox"
       height="1.645"
       width="1.4289999"
       y="-0.23"
       x="-0.215">
      <feOffset
         id="feOffset12"
         result="shadowOffsetOuter1"
         in="SourceAlpha"
         dy="20" />
      <feGaussianBlur
         id="feGaussianBlur14"
         result="shadowBlurOuter1"
         in="shadowOffsetOuter1"
         stdDeviation="20" />
      <feColorMatrix
         id="feColorMatrix16"
         in="shadowBlurOuter1"
         values="0 0 0 0 0.421821759 0 0 0 0 0.554338424 0 0 0 0 0.893710371 0 0 0 0.243444056 0" />
    </filter>
    <rect
       rx="5"
       height="217"
       width="326"
       y="0"
       x="0"
       id="a" />
  </defs>
  <g
     transform="translate(-40)"
     style="fill:none;fill-rule:evenodd"
     id="g51">
    <g
       id="g28"
       transform="translate(40)">
      <rect
         style="opacity:0.07999998;fill:#2d2e40"
         id="rect22"
         rx="111.5"
         height="223"
         width="223"
         y="53"
         x="52"
         transform="matrix(1,0,0,-1,0,329)" />
      <rect
         style="opacity:0.5;stroke:#2d2e40"
         id="rect24"
         rx="125.5"
         height="251"
         width="251"
         y="37.5"
         x="37.5"
         transform="matrix(1,0,0,-1,0,326)" />
      <rect
         style="opacity:0.25;stroke:#2d2e40"
         id="rect26"
         rx="162.5"
         height="325"
         width="325"
         y="0.5"
         x="0.5"
         transform="matrix(1,0,0,-1,0,326)" />
    </g>
    <g
       id="g47"
       transform="translate(40,54)">
      <mask
         fill="#fff"
         id="d">
        <use
           height="100%"
           width="100%"
           y="0"
           x="0"
           id="use30"
           xlink:href="#a" />
      </mask>
      <g
         style="fill-rule:nonzero"
         id="g37">
        <use
           height="100%"
           width="100%"
           y="0"
           x="0"
           style="fill:#000000;filter:url(#b)"
           id="use33"
           xlink:href="#a" />
        <use
           height="100%"
           width="100%"
           y="0"
           x="0"
           style="fill:url(#c)"
           id="use35"
           xlink:href="#a" />
      </g>
      <path
         style="fill:#2d2e40;fill-rule:nonzero"
         id="path39"
         mask="url(#d)"
         d="m 3,63.525 h 320 a 3,3 0 0 1 3,3 V 214 a 3,3 0 0 1 -3,3 H 3 A 3,3 0 0 1 0,214 V 66.525 a 3,3 0 0 1 3,-3 z" />
      <rect
         style="fill:#ffffff;fill-rule:nonzero"
         id="rect41"
         rx="3"
         height="69.707001"
         width="68.949997"
         y="24.246"
         x="45.966999"
         mask="url(#d)" />
      <ellipse
         style="fill:#2d2e40"
         id="ellipse43"
         ry="20.003"
         rx="19.959"
         cy="59.402"
         cx="80.442001"
         mask="url(#d)" />
      <rect
         style="fill:#ffffff;fill-rule:nonzero"
         id="rect45"
         rx="3"
         height="165.478"
         width="153.625"
         y="24.246"
         x="126.408"
         mask="url(#d)" />
    </g>
    <path
       style="stroke:url(#e);stroke-width:8;stroke-linecap:round"
       id="path49"
       transform="translate(40,54)"
       d="m 106,144 c 23.871,-37.394 41.526,-57.6 52.964,-60.62 17.158,-4.53 12.04,42.374 36.744,36.938 24.705,-5.436 27.717,-52.994 46.403,-55.234 18.685,-2.241 28.57,41.257 36.733,45.264 5.441,2.672 12.16,-3.105 20.156,-17.332" />
  </g>
</svg>
